# xmcd
#
# Track frame offsets:
#	150
#	27704
#	50180
#	69352
#	92420
#	107735
#	125589
#	150647
#	175352
#	197483
#	222000
#	245922
#
# Disc length: 3572 seconds
#
# Revision: 83261041
# Processed by: cddbd v1.5.1PL0 Copyright (c) Steve Scherf et al.
# Submitted via: EasyCDDAExtractor 8.0.2.1
#
DISCID=ad0df20c
DTITLE=The Notorious B.I.G. - Life After Death [CD2]
DYEAR=1997
DGENRE=Rap
TTITLE0=Notorious Thugs (Featuring Bone Thugs N Harmony)
TTITLE1=Miss U (Featuring 112)
TTITLE2=Another (Featuring Lil' Kim)
TTITLE3=Going Back To Cali
TTITLE4=Ten Crack Commandments
TTITLE5=Playa Hater
TTITLE6=Nasty Boy
TTITLE7=Sky's The Limit (Featuring 112)
TTITLE8=The World Is Filled... (Featuring Too Short and P. Diddy)
TTITLE9=My Downfall (Featuring DMC)
TTITLE10=Long Kiss Goodnight
TTITLE11=You're Nobody (Til Somebody Kills You)
EXTD=
EXTT0=
EXTT1=
EXTT2=
EXTT3=
EXTT4=
EXTT5=
EXTT6=
EXTT7=
EXTT8=
EXTT9=
EXTT10=
EXTT11=
PLAYORDER=
